<svg width="27" height="24" viewBox="0 0 27 24" fill="none" xmlns="http://www.w3.org/2000/svg">
<path d="M13.0312 0.140625C13.3125 0 13.6406 0 13.9219 0.140625L24.2344 7.26562C24.75 7.64062 25.0781 8.20312 25.1719 8.85938L26.7656 21.4688C26.9062 22.8281 25.875 24 24.5156 24H2.4375C1.07812 24 0.046875 22.8281 0.1875 21.4688L1.78125 8.85938C1.875 8.20312 2.20312 7.64062 2.71875 7.26562L13.0312 0.140625ZM3.28125 9.04688L1.6875 21.6562C1.64062 22.125 1.96875 22.5 2.4375 22.5H12.75V2.20312L3.5625 8.48438C3.42188 8.625 3.28125 8.8125 3.28125 9.04688ZM14.25 13.5469V22.5H18.9844L14.25 13.5469ZM24.5156 22.5C24.9844 22.5 25.3125 22.125 25.2656 21.6562L23.6719 9.04688C23.6719 8.8125 23.5312 8.625 23.3906 8.48438L14.25 2.20312V10.3125L20.6719 22.5H24.5156Z" fill="#262626"/>
</svg>
