<svg width="21" height="24" viewBox="0 0 21 24" fill="none" xmlns="http://www.w3.org/2000/svg">
<path d="M18 0C19.6406 0 21 1.35938 21 3V21C21 22.6875 19.6406 24 18 24H3C1.3125 24 0 22.6875 0 21V3C0 1.35938 1.3125 0 3 0H18ZM18.75 21V3C18.75 2.625 18.375 2.25 18 2.25H3C2.57812 2.25 2.25 2.625 2.25 3V21C2.25 21.4219 2.57812 21.75 3 21.75H18C18.375 21.75 18.75 21.4219 18.75 21ZM15.75 18C16.125 18 16.5 18.375 16.5 18.75C16.5 19.1719 16.125 19.5 15.75 19.5H5.25C4.82812 19.5 4.5 19.1719 4.5 18.75C4.5 18.375 4.82812 18 5.25 18H15.75ZM10.5 15.375C7.35938 15.375 4.875 12.8906 4.875 9.75C4.875 6.65625 7.35938 4.125 10.5 4.125C13.5938 4.125 16.125 6.65625 16.125 9.75C16.125 12.8906 13.5938 15.375 10.5 15.375ZM14.5312 9C14.2969 7.73438 13.4531 6.65625 12.3281 6.09375C12.6562 6.89062 12.8438 7.92188 12.8906 9H14.5312ZM12.8906 10.5C12.8438 11.625 12.6094 12.6094 12.3281 13.4531C13.4531 12.8438 14.2969 11.8125 14.5312 10.5H12.8906ZM10.5 5.76562C10.1719 6.14062 9.65625 7.26562 9.5625 9H11.4375C11.2969 7.26562 10.7812 6.14062 10.5 5.76562ZM11.4375 10.5H9.5625C9.65625 12.2812 10.1719 13.4062 10.5 13.7812C10.7812 13.4062 11.2969 12.2812 11.4375 10.5ZM8.625 6.09375C7.5 6.65625 6.65625 7.73438 6.42188 9H8.0625C8.10938 7.92188 8.29688 6.89062 8.625 6.09375ZM8.0625 10.5H6.42188C6.65625 11.8125 7.5 12.8438 8.625 13.4531C8.29688 12.6094 8.10938 11.625 8.0625 10.5Z" fill="#262626"/>
</svg>
