<svg width="102" height="81" viewBox="0 0 102 81" fill="none" xmlns="http://www.w3.org/2000/svg">
<path d="M99.4375 74.4375C101.156 75.6875 101.469 78.0312 100.062 79.5938C99.2812 80.5312 98.1875 81 97.0938 81C96.3125 81 95.5312 80.8438 94.9062 80.2188L2.40625 7.71875C0.6875 6.46875 0.375 4.125 1.78125 2.5625C3.03125 0.84375 5.375 0.53125 6.9375 1.9375L14.9062 8.1875C16.625 6.78125 18.6562 6 20.8438 6H80.8438C86.3125 6 90.8438 10.5312 90.8438 16V66C90.8438 66.625 90.8438 67.0938 90.6875 67.5625L99.4375 74.4375ZM35.8438 24.4375C35.8438 24.125 35.8438 23.8125 35.8438 23.5C35.8438 19.4375 32.4062 16 28.3438 16C27.4062 16 26.625 16.3125 25.6875 16.625L35.8438 24.4375ZM52.7188 37.7188L76.7812 56.625L60.5312 32.25C60.0625 31.4688 59.2812 31 58.5 31C57.5625 31 56.7812 31.4688 56.3125 32.25L52.7188 37.7188ZM23.6562 66H64.5938L77.4062 76H20.8438C15.375 76 10.8438 71.625 10.8438 66V23.9688L44.2812 50.2188L41.7812 54.125L36.625 47.0938C36.1562 46.4688 35.5312 46 34.75 46C33.8125 46 33.1875 46.4688 32.5625 47.0938L21.625 62.0938C21 62.875 21 63.8125 21.3125 64.75C21.7812 65.5312 22.7188 66 23.6562 66Z" fill="#262626"/>
</svg>
