<svg width="24" height="24" viewBox="0 0 24 24" fill="none" xmlns="http://www.w3.org/2000/svg">
<path d="M14.3438 15.2812L7.59375 17.8594C6.65625 18.2344 5.76562 17.2969 6.14062 16.4062L8.71875 9.65625C8.90625 9.23438 9.1875 8.95312 9.60938 8.76562L16.3594 6.1875C17.2969 5.8125 18.1875 6.70312 17.8125 7.64062L15.2344 14.3906C15.0469 14.8125 14.7656 15.0938 14.3438 15.2812ZM11.9531 10.5C11.1562 10.5 10.4531 11.2031 10.4531 12C10.4531 12.8438 11.1562 13.5 11.9531 13.5C12.7969 13.5 13.5 12.8438 13.5 12C13.5 11.2031 12.7969 10.5 11.9531 10.5ZM24 12C24 18.6562 18.6094 24 12 24C5.34375 24 0 18.6562 0 12C0 5.39062 5.34375 0 12 0C18.6094 0 24 5.39062 24 12ZM12 2.25C6.60938 2.25 2.25 6.65625 2.25 12C2.25 17.3906 6.60938 21.75 12 21.75C17.3438 21.75 21.75 17.3906 21.75 12C21.75 6.65625 17.3438 2.25 12 2.25Z" fill="#262626"/>
</svg>
