<svg width="21" height="24" viewBox="0 0 21 24" fill="none" xmlns="http://www.w3.org/2000/svg">
<path d="M15.75 18C16.125 18 16.5 18.375 16.5 18.75C16.5 19.1719 16.125 19.5 15.75 19.5H5.25C4.82812 19.5 4.5 19.1719 4.5 18.75C4.5 18.375 4.82812 18 5.25 18H15.75ZM10.5 3C13.7812 3 16.5 5.71875 16.5 9C16.5 12.3281 13.7812 15 10.5 15C7.17188 15 4.5 12.3281 4.5 9C4.5 5.71875 7.17188 3 10.5 3ZM6.04688 9.75C6.28125 11.25 7.26562 12.4688 8.53125 13.0781C8.20312 12.1875 7.96875 11.0156 7.875 9.75H6.04688ZM7.875 8.25C7.96875 6.98438 8.20312 5.85938 8.53125 4.96875C7.26562 5.57812 6.28125 6.79688 6.04688 8.25H7.875ZM10.5 13.4531C10.8281 13.125 11.4375 11.8594 11.5781 9.75H9.375C9.51562 11.8594 10.125 13.125 10.5 13.4531ZM9.375 8.25H11.5781C11.4375 6.1875 10.8281 4.92188 10.5 4.59375C10.125 4.92188 9.51562 6.1875 9.375 8.25ZM12.4219 13.0781C13.6875 12.4688 14.6719 11.25 14.9062 9.75H13.0781C12.9844 11.0156 12.75 12.1875 12.4219 13.0781ZM13.0781 8.25H14.9062C14.6719 6.79688 13.6875 5.57812 12.4219 4.96875C12.75 5.85938 12.9844 6.98438 13.0781 8.25ZM18 0C19.6406 0 21 1.35938 21 3V21C21 22.6875 19.6406 24 18 24H3C1.3125 24 0 22.6875 0 21V3C0 1.35938 1.3125 0 3 0H18ZM19.5 21V3C19.5 2.20312 18.7969 1.5 18 1.5H3C2.15625 1.5 1.5 2.20312 1.5 3V21C1.5 21.8438 2.15625 22.5 3 22.5H18C18.7969 22.5 19.5 21.8438 19.5 21Z" fill="#262626"/>
</svg>
