<svg width="16" height="16" viewBox="0 0 16 16" fill="none" xmlns="http://www.w3.org/2000/svg">
<path d="M10.7246 5.29883L14.9141 5.91406C15.2656 5.97266 15.5586 6.20703 15.6758 6.55859C15.793 6.88086 15.7051 7.26172 15.4414 7.49609L12.3945 10.5137L13.127 14.791C13.1855 15.1426 13.0391 15.4941 12.7461 15.6992C12.4531 15.9336 12.0723 15.9336 11.75 15.7871L8 13.7656L4.2207 15.7871C3.92773 15.9336 3.51758 15.9336 3.25391 15.6992C2.96094 15.4941 2.81445 15.1426 2.87305 14.791L3.57617 10.5137L0.529297 7.49609C0.265625 7.26172 0.177734 6.88086 0.294922 6.55859C0.412109 6.20703 0.705078 5.97266 1.05664 5.91406L5.27539 5.29883L7.15039 1.40234C7.29688 1.08008 7.61914 0.875 8 0.875C8.35156 0.875 8.67383 1.08008 8.82031 1.40234L10.7246 5.29883Z" fill="#262626"/>
</svg>
