<svg width="25" height="25" viewBox="0 0 25 25" fill="none" xmlns="http://www.w3.org/2000/svg">
<path d="M12.4531 20.4375L6.03125 23.9062C5.65625 24.0938 5.23438 24.0469 4.85938 23.8125C4.53125 23.5781 4.34375 23.1094 4.39062 22.6875L5.65625 15.4219L0.453125 10.2656C0.125 9.9375 0.03125 9.51562 0.171875 9.09375C0.3125 8.71875 0.640625 8.39062 1.0625 8.34375L8.23438 7.26562L11.4688 0.65625C11.6562 0.28125 12.0312 0 12.4531 0C12.9219 0 13.2969 0.28125 13.4844 0.65625L16.7188 7.26562L23.8906 8.34375C24.3125 8.39062 24.6406 8.71875 24.7812 9.09375C24.9219 9.51562 24.8281 9.9375 24.5 10.2656L19.2969 15.4219L20.5156 22.6875C20.6094 23.1094 20.4219 23.5781 20.0938 23.8125C19.7188 24.0469 19.25 24.0938 18.875 23.9062L12.4531 20.4375ZM9.59375 7.92188C9.35938 8.39062 8.9375 8.67188 8.46875 8.76562L2 9.70312L6.6875 14.3438C7.0625 14.6719 7.20312 15.1875 7.10938 15.6562L6.03125 22.2188L11.75 19.125C12.2188 18.8906 12.7344 18.8906 13.2031 19.125L18.9219 22.2188L17.8438 15.6562C17.75 15.1875 17.8906 14.6719 18.2656 14.3438L22.9062 9.70312L16.4844 8.76562C15.9688 8.67188 15.5469 8.39062 15.3594 7.92188L12.4531 2.01562L9.59375 7.92188Z" fill="#262626"/>
</svg>
