<svg width="27" height="25" viewBox="0 0 27 25" fill="none" xmlns="http://www.w3.org/2000/svg">
<path d="M12.8438 1.23438C13.2188 0.953125 13.7344 0.953125 14.1094 1.23438L24.4219 8.3125C25.0312 8.78125 25.4531 9.4375 25.5469 10.2344L26.8125 22.1406C26.9531 23.6875 25.7344 25 24.1875 25H2.76562C1.21875 25 0 23.6875 0.140625 22.1406L1.40625 10.2344C1.5 9.4375 1.92188 8.78125 2.53125 8.3125L12.8438 1.23438ZM24.5625 22.375L23.2969 10.4688C23.2969 10.3281 23.25 10.2344 23.1562 10.1875L14.625 4.28125V14.125L19.3594 22.75H24.1875C24.4219 22.75 24.5625 22.5625 24.5625 22.375ZM12.375 4.28125L3.79688 10.1875C3.70312 10.2344 3.65625 10.3281 3.65625 10.4688L2.39062 22.375C2.39062 22.5625 2.53125 22.75 2.76562 22.75H12.375V4.28125Z" fill="#262626"/>
</svg>
